<?xml version="1.0" standalone="no"?>
<!DOCTYPE svg PUBLIC "-//W3C//DTD SVG 20010904//EN"
 "http://www.w3.org/TR/2001/REC-SVG-20010904/DTD/svg10.dtd">
<svg version="1.0" xmlns="http://www.w3.org/2000/svg"
 width="512.000000pt" height="512.000000pt" viewBox="0 0 512.000000 512.000000"
 preserveAspectRatio="xMidYMid meet">

<g transform="translate(0.000000,512.000000) scale(0.100000,-0.100000)"
fill="#000000" stroke="none">
<path d="M3347 5002 c-10 -10 -17 -30 -17 -44 0 -21 29 -125 74 -264 6 -18
-10 -31 -124 -103 -71 -45 -143 -86 -158 -92 -23 -8 -98 3 -361 51 -182 33
-359 60 -392 60 -74 0 -196 -24 -269 -54 -57 -23 -981 -651 -1012 -688 -10
-11 -18 -29 -18 -39 0 -27 76 -106 124 -131 56 -29 143 -35 205 -14 l51 16 41
-29 c69 -50 178 -61 244 -24 14 8 30 4 68 -16 60 -30 172 -41 234 -21 21 7 90
41 154 76 l116 64 119 0 c163 0 237 -13 341 -58 119 -52 180 -66 293 -65 167
1 313 56 435 165 71 63 122 98 141 98 7 0 24 -38 38 -85 22 -70 32 -88 52 -95
14 -6 123 -10 242 -10 247 0 265 4 270 60 2 19 -29 295 -68 612 -38 317 -70
584 -70 592 0 9 -9 25 -20 36 -19 19 -33 20 -368 20 -325 0 -350 -1 -365 -18z
m701 -620 c34 -284 62 -527 62 -539 0 -23 -1 -23 -154 -23 -87 0 -157 4 -161
10 -5 8 -308 996 -321 1048 l-6 22 258 0 259 0 63 -518z m-524 -89 c43 -142
80 -263 83 -269 2 -7 -17 -22 -42 -35 -26 -13 -83 -54 -128 -93 -98 -82 -192
-130 -290 -146 -122 -21 -216 -3 -397 76 -65 28 -66 28 -335 34 -225 5 -275 8
-301 22 -36 19 -104 92 -104 111 0 10 54 13 258 12 230 0 261 2 285 18 19 12
27 26 27 47 0 55 2 55 -356 55 l-329 0 -14 -32 c-12 -27 -49 -51 -268 -169
-253 -136 -254 -136 -309 -132 -118 10 -123 5 365 340 495 340 509 347 666
355 79 5 129 -2 421 -56 397 -72 375 -74 560 43 66 42 121 76 125 76 3 0 40
-116 83 -257z m-1611 -377 c20 -30 25 -26 -136 -111 -110 -58 -133 -66 -162
-61 -19 4 -36 10 -39 15 -4 6 294 176 315 180 4 1 14 -10 22 -23z m138 -135
l32 -19 -40 -20 c-50 -26 -102 -36 -132 -24 -22 8 -20 11 40 45 35 20 65 36
66 37 2 0 17 -9 34 -19z"/>
<path d="M2430 3459 c-162 -114 -340 -219 -520 -306 -85 -41 -162 -78 -170
-82 -39 -20 -41 -45 -36 -346 4 -270 6 -297 30 -388 59 -227 212 -429 440
-579 109 -72 173 -105 288 -148 l87 -33 63 23 c210 76 391 190 533 334 116
118 178 215 227 356 l33 95 3 330 c4 379 13 342 -98 389 -173 74 -474 248
-649 375 -46 34 -91 61 -100 61 -9 0 -68 -37 -131 -81z m280 -155 c170 -113
297 -185 466 -266 l124 -59 0 -237 c-1 -258 -11 -341 -54 -455 -87 -230 -337
-449 -646 -566 -52 -20 -53 -20 -101 -1 -288 114 -526 323 -618 544 -48 116
-61 217 -61 481 l0 232 163 81 c184 92 318 170 462 270 55 38 105 70 110 71 6
1 76 -42 155 -95z"/>
<path d="M2638 2633 l-188 -187 -73 72 c-59 58 -78 72 -104 72 -36 0 -55 -20
-55 -57 0 -36 197 -233 233 -233 17 0 78 55 236 213 188 187 213 216 213 244
0 33 -29 63 -59 63 -8 0 -99 -84 -203 -187z"/>
<path d="M3070 1506 c-19 -7 -85 -41 -146 -75 l-111 -61 -119 0 c-163 0 -237
13 -341 58 -118 52 -180 66 -293 66 -167 -1 -312 -56 -435 -166 -71 -63 -122
-98 -141 -98 -7 0 -24 38 -38 85 -22 70 -32 88 -52 95 -14 6 -123 10 -242 10
-247 0 -265 -4 -270 -60 -2 -19 29 -295 68 -612 38 -317 70 -584 70 -592 0 -9
9 -25 20 -36 19 -19 33 -20 368 -20 435 0 413 -13 349 196 -19 60 -37 118 -41
130 -6 18 10 31 124 103 71 45 143 87 159 92 23 8 95 -2 361 -50 182 -34 357
-61 390 -61 77 0 195 23 267 52 59 25 983 652 1016 690 9 11 17 29 17 39 0 27
-76 106 -124 131 -57 29 -154 35 -212 13 -40 -15 -47 -15 -62 -2 -65 57 -193
80 -257 45 -28 -15 -32 -15 -80 11 -40 21 -66 26 -130 28 -49 2 -94 -3 -115
-11z m144 -105 c16 -6 8 -14 -47 -44 l-66 -37 -32 19 -31 19 33 18 c62 32 106
40 143 25z m-974 -54 c36 -14 94 -38 130 -53 65 -28 67 -28 335 -34 225 -5
275 -8 301 -22 36 -19 104 -92 104 -111 0 -10 -54 -13 -258 -12 -230 0 -261
-2 -285 -18 -19 -12 -27 -26 -27 -47 0 -55 -2 -55 356 -55 l329 0 14 32 c12
27 50 51 268 168 253 137 254 137 309 133 118 -10 123 -5 -362 -338 -494 -340
-512 -349 -669 -357 -73 -4 -121 1 -260 27 -577 108 -525 110 -729 -19 -64
-40 -118 -72 -120 -70 -2 2 -39 119 -81 259 -43 140 -80 260 -82 266 -2 7 16
21 40 33 24 12 81 53 128 92 142 121 252 162 409 155 58 -3 105 -12 150 -29z
m1302 15 c4 -4 -65 -47 -154 -95 l-163 -87 -17 22 c-10 14 -13 27 -8 32 5 5
67 40 137 78 106 57 134 68 162 64 19 -3 38 -9 43 -14z m-2217 -72 c5 -8 308
-996 321 -1047 l6 -23 -259 0 -258 0 -63 518 c-34 284 -62 527 -62 540 0 22 1
22 154 22 87 0 157 -4 161 -10z"/>
</g>
</svg>
